<svg width="141" height="46" viewBox="0 0 141 46" fill="none" xmlns="http://www.w3.org/2000/svg">
<path d="M57.4 29.0792H56.34C56.2953 29.0792 56.2511 29.0704 56.2099 29.0533C56.1686 29.0362 56.1312 29.0112 56.0996 28.9796C56.068 28.948 56.043 28.9105 56.0259 28.8693C56.0088 28.828 56 28.7838 56 28.7392V12.3592C56.0002 12.292 56.0202 12.2265 56.0576 12.1707C56.0949 12.115 56.148 12.0715 56.21 12.0458C56.272 12.0202 56.3403 12.0134 56.4061 12.0265C56.4719 12.0395 56.5325 12.0718 56.58 12.1192L63.66 19.1992C63.7237 19.2627 63.81 19.2983 63.9 19.2983C63.99 19.2983 64.0763 19.2627 64.14 19.1992L71.24 12.0992C71.2875 12.0518 71.3481 12.0195 71.4139 12.0065C71.4797 11.9934 71.548 12.0002 71.61 12.0258C71.672 12.0515 71.7251 12.0949 71.7624 12.1507C71.7998 12.2065 71.8198 12.272 71.82 12.3392V28.9592C71.8198 29.0263 71.7998 29.0919 71.7624 29.1476C71.7251 29.2034 71.672 29.2468 71.61 29.2725C71.548 29.2982 71.4797 29.3049 71.4139 29.2918C71.3481 29.2788 71.2875 29.2465 71.24 29.1992L58.32 16.2792C58.2725 16.2318 58.2119 16.1995 58.1461 16.1865C58.0803 16.1734 58.012 16.1802 57.95 16.2058C57.888 16.2315 57.8349 16.2749 57.7976 16.3307C57.7602 16.3865 57.7402 16.452 57.74 16.5192V28.7392C57.74 28.7838 57.7312 28.828 57.7141 28.8693C57.697 28.9105 57.672 28.948 57.6404 28.9796C57.6088 29.0112 57.5714 29.0362 57.5301 29.0533C57.4889 29.0704 57.4447 29.0792 57.4 29.0792ZM69.55 25.0792C69.5998 25.1311 69.664 25.167 69.7343 25.1821C69.8046 25.1973 69.8779 25.191 69.9446 25.1641C70.0114 25.1371 70.0685 25.0909 70.1087 25.0312C70.1488 24.9715 70.1702 24.9011 70.17 24.8292L70.21 16.4092C70.2102 16.3384 70.1895 16.2692 70.1506 16.2101C70.1117 16.1511 70.0562 16.1048 69.9912 16.077C69.9261 16.0493 69.8543 16.0413 69.7847 16.0542C69.7151 16.067 69.6509 16.1 69.6 16.1492L65.29 20.3392C65.2564 20.3726 65.2298 20.4124 65.2116 20.4561C65.1935 20.4999 65.1841 20.5468 65.1841 20.5942C65.1841 20.6416 65.1935 20.6885 65.2116 20.7322C65.2298 20.776 65.2564 20.8157 65.29 20.8492L69.55 25.0792Z" fill="#201087"/>
<path d="M85.88 23.7692C85.88 25.1934 85.3142 26.5593 84.3072 27.5663C83.3001 28.5734 81.9342 29.1392 80.51 29.1392C79.0858 29.1392 77.7199 28.5734 76.7128 27.5663C75.7058 26.5593 75.14 25.1934 75.14 23.7692C75.14 22.345 75.7058 20.9791 76.7128 19.972C77.7199 18.9649 79.0858 18.3992 80.51 18.3992C81.9342 18.3992 83.3001 18.9649 84.3072 19.972C85.3142 20.9791 85.88 22.345 85.88 23.7692ZM84.13 23.7592C84.13 22.8017 83.7497 21.8835 83.0727 21.2065C82.3956 20.5295 81.4774 20.1492 80.52 20.1492C79.5626 20.1492 78.6444 20.5295 77.9673 21.2065C77.2903 21.8835 76.91 22.8017 76.91 23.7592C76.91 24.7166 77.2903 25.6348 77.9673 26.3118C78.6444 26.9888 79.5626 27.3692 80.52 27.3692C81.4774 27.3692 82.3956 26.9888 83.0727 26.3118C83.7497 25.6348 84.13 24.7166 84.13 23.7592Z" fill="#201087"/>
<path d="M90.73 23.7391C90.72 26.3091 93.45 28.0691 95.73 27.0391C95.8633 26.9858 96.4033 26.7291 97.35 26.2691C97.5033 26.1958 97.66 26.1825 97.82 26.2291C97.94 26.2691 98.0267 26.3291 98.08 26.4091C98.2188 26.6375 98.2759 26.9041 98.2411 27.1609C98.2062 27.4176 98.0817 27.6476 97.89 27.8091C94.25 30.8691 88.91 28.0591 88.93 23.7391C88.94 19.4091 94.3 16.6491 97.92 19.7291C98.1102 19.892 98.2329 20.1226 98.2659 20.3793C98.2989 20.636 98.2401 20.9019 98.1 21.1291C98.0467 21.2091 97.96 21.2691 97.84 21.3091C97.68 21.3558 97.5233 21.3425 97.37 21.2691C96.4233 20.8025 95.8867 20.5391 95.76 20.4791C93.48 19.4391 90.74 21.1791 90.73 23.7391Z" fill="#201087"/>
<path d="M102.98 24.8792C102.98 25.7325 103.247 25.8258 103.78 25.1592C105.467 23.0525 107.07 21.1358 108.59 19.4092C109.19 18.7158 109.547 18.3592 109.66 18.3392C111.113 18.1125 111.32 18.6192 110.28 19.8592L107.31 23.4192C107.003 23.7792 107.017 24.1258 107.35 24.4592L111.3 28.3992C111.357 28.4565 111.396 28.5296 111.412 28.6091C111.428 28.6887 111.42 28.7712 111.389 28.8461C111.358 28.921 111.305 28.9851 111.238 29.0301C111.17 29.0752 111.091 29.0992 111.01 29.0992H109.98C109.888 29.0993 109.798 29.0817 109.714 29.0474C109.63 29.0131 109.554 28.9627 109.49 28.8992L106.28 25.6892C106.243 25.6514 106.198 25.6214 106.149 25.6009C106.101 25.5804 106.048 25.5698 105.995 25.5698C105.942 25.5698 105.889 25.5804 105.841 25.6009C105.792 25.6214 105.747 25.6514 105.71 25.6892L103.03 28.3592C101.83 29.5592 101.23 29.3092 101.23 27.6092V19.1892C101.23 18.9982 101.306 18.8151 101.441 18.68C101.576 18.545 101.759 18.4692 101.95 18.4692H102.4C102.554 18.4692 102.701 18.5303 102.81 18.639C102.919 18.7478 102.98 18.8953 102.98 19.0492V24.8792Z" fill="#201087"/>
<path d="M122.11 27.8491C121.977 27.8491 121.85 27.9018 121.756 27.9956C121.663 28.0894 121.61 28.2165 121.61 28.3491V32.6791C121.61 32.8993 121.523 33.1104 121.367 33.266C121.211 33.4217 121 33.5091 120.78 33.5091H120.46C120.08 33.5091 119.89 33.3225 119.89 32.9491C119.83 28.7891 119.83 25.4491 119.89 22.9291C119.99 18.4391 125.8 16.2891 128.73 20.2491C129.05 20.6825 129.063 21.0458 128.77 21.3391C128.557 21.5591 128.273 21.5625 127.92 21.3491C125.95 20.1491 124.13 18.6791 122.29 21.1891C121.51 22.2558 121.35 23.8058 121.81 25.8391C121.87 26.1058 122.04 26.2391 122.32 26.2391H126.56C126.639 26.2391 126.717 26.2547 126.79 26.2848C126.862 26.315 126.929 26.3592 126.984 26.4149C127.04 26.4706 127.084 26.5367 127.114 26.6095C127.144 26.6823 127.16 26.7603 127.16 26.8391V27.2291C127.16 27.6425 126.953 27.8491 126.54 27.8491H122.11Z" fill="#201087"/>
<path d="M115.681 18.3991L115.581 18.3993C115.128 18.4001 114.761 18.7678 114.762 19.2207L114.778 28.3007C114.779 28.7536 115.146 29.12 115.599 29.1192L115.699 29.1191C116.152 29.1183 116.519 28.7505 116.518 28.2976L116.502 19.2177C116.501 18.7648 116.134 18.3983 115.681 18.3991Z" fill="#201087"/>
<path d="M138.7 25.2091C133.95 27.1591 131.4 22.8991 132.55 18.7391C132.585 18.6155 132.658 18.5065 132.759 18.4289C132.861 18.3513 132.984 18.3092 133.11 18.3091C133.25 18.3091 133.373 18.3291 133.48 18.3691C133.733 18.4691 133.87 18.6525 133.89 18.9191C134.03 21.2591 133.95 24.9291 137.7 23.8691C138.148 23.7463 138.544 23.4782 138.826 23.106C139.107 22.7338 139.26 22.2781 139.26 21.8091V19.2191C139.26 18.7258 139.51 18.4791 140.01 18.4791H140.38C140.492 18.4789 140.599 18.5211 140.681 18.5972C140.763 18.6734 140.812 18.7777 140.82 18.8891C140.947 21.2691 140.963 23.4591 140.87 25.4591C140.71 28.9991 136.42 30.9491 133.91 28.4791C132.403 26.9925 132.687 26.5191 134.76 27.0591C134.933 27.0991 135.34 27.3491 135.98 27.8091C136.26 28.0025 136.567 28.0725 136.9 28.0191C138.167 27.7991 138.943 27.0125 139.23 25.6591C139.33 25.1725 139.153 25.0225 138.7 25.2091Z" fill="#201087"/>
<path d="M39.475 7.65612C36.4824 8.5248 33.5239 9.3389 30.5995 10.0984C28.6029 10.6215 26.6563 10.6124 24.7598 10.0711C21.9422 9.27296 20.0662 6.61234 17.3032 5.83462C14.0422 4.92045 9.526 5.75957 6.44923 6.7556C9.58022 3.56655 13.5859 1.3797 17.9581 0.472443C21.8601 -0.339189 25.9073 -0.101935 29.6872 1.16002C33.4671 2.42198 36.8444 4.66351 39.475 7.65612Z" fill="#D3CFE7"/>
<path d="M39.475 7.65612C42.6314 11.2514 44.564 15.7569 44.9941 20.5226L43.2204 21.2594C41.8059 20.8683 40.4028 20.5704 39.0111 20.3657C37.6922 20.1701 35.8047 19.2469 33.3488 17.5959C30.7086 15.8154 28.6688 14.028 26.3561 13.1752C21.4215 11.3423 16.9393 11.738 12.9098 14.3623C8.59364 17.173 4.36393 18.8466 0.220642 19.3833C0.894399 14.6196 3.07706 10.1945 6.44922 6.75561C9.52599 5.75958 14.0422 4.92046 17.3032 5.83462C20.0661 6.61234 21.9422 9.27296 24.7598 10.0711C26.6563 10.6124 28.6029 10.6215 30.5995 10.0984C33.5239 9.33891 36.4824 8.5248 39.475 7.65612Z" fill="#9E94CB"/>
<path d="M43.2204 21.2594L43.0908 21.5732C43.0225 21.746 42.9066 21.8779 42.7428 21.9689C39.1635 23.9337 35.9457 25.5641 33.0895 26.8603C30.1083 28.2179 26.2129 28.2111 23.1634 26.567C18.1082 23.845 14.6972 20.9729 8.50951 21.6073C7.74998 21.6846 6.34008 22.0212 4.2798 22.617C2.89264 23.0172 1.47592 23.3561 0.0296322 23.6335C-0.0429649 22.2132 0.0210026 20.79 0.220652 19.3833C4.36394 18.8466 8.59365 17.173 12.9098 14.3622C16.9394 11.738 21.4215 11.3423 26.3561 13.1752C28.6688 14.028 30.7086 15.8154 33.3488 17.5959C35.8047 19.2469 37.6922 20.1701 39.0111 20.3657C40.4028 20.5704 41.8059 20.8683 43.2204 21.2594Z" fill="#6E5EB0"/>
<path d="M44.9941 20.5226C45.3772 24.8127 44.525 29.1212 42.5382 32.9388C40.5961 33.1071 38.6973 33.3709 36.8417 33.7302C35.1021 34.0713 33.7513 33.9553 32.2573 33.2253C29.3783 31.82 26.77 30.7944 24.4323 30.1486C20.5392 29.0752 16.7597 29.6824 13.094 31.9701C11.3339 33.0707 8.59592 34.5943 4.88015 36.5409C1.95247 32.85 0.256036 28.3357 0.0296326 23.6335C1.47592 23.356 2.89264 23.0172 4.2798 22.617C6.34008 22.0212 7.74998 21.6846 8.50951 21.6073C14.6972 20.9728 18.1082 23.8449 23.1634 26.567C26.2129 28.2111 30.1083 28.2179 33.0895 26.8603C35.9457 25.5641 39.1635 23.9336 42.7428 21.9689C42.9066 21.8779 43.0225 21.746 43.0908 21.5732L43.2204 21.2594L44.9941 20.5226Z" fill="#402D97"/>
<path d="M42.5382 32.9388C40.7972 36.2887 38.2425 39.1474 35.1087 41.2525C31.9748 43.3577 28.3623 44.6417 24.6028 44.9866C20.8718 45.3299 17.1143 44.7374 13.6705 43.2627C10.2267 41.788 7.20536 39.4776 4.88014 36.5409C8.59592 34.5943 11.3339 33.0707 13.094 31.9701C16.7597 29.6824 20.5391 29.0752 24.4323 30.1486C26.77 30.7944 29.3783 31.82 32.2572 33.2253C33.7513 33.9553 35.1021 34.0713 36.8417 33.7302C38.6973 33.3709 40.5961 33.1071 42.5382 32.9388Z" fill="#201087"/>
</svg>
